<svg xmlns="http://www.w3.org/2000/svg" version="1.1" xmlns:xlink="http://www.w3.org/1999/xlink" xmlns:svgjs="http://svgjs.dev/svgjs" viewBox="0 0 5.073187594748712 5.832916139199943"><g transform="matrix(1,0,0,1,0.4530963608509184,4.311819778349024)"><g><path d=" M 0.18 2.220446049250313e-16 L 0.18 1.0500000000000003 L 0.3165 1.0500000000000003 L 0.3165 0.5280000000000002 L 0.7815 0.5280000000000002 L 0.7815 0.4590000000000003 L 0.3165 0.4590000000000003 L 0.3165 0.08250000000000024 L 0.858 0.08250000000000024 L 0.858 2.220446049250313e-16 L 0.18 2.220446049250313e-16 M 1.663484619140625 0.7410000000000003 L 1.807484619140625 1.0500000000000003 L 1.9529846191406248 1.0500000000000003 L 1.463984619140625 2.220446049250313e-16 L 1.388984619140625 2.220446049250313e-16 L 0.944984619140625 1.0500000000000003 L 1.013984619140625 1.0500000000000003 L 1.1459846191406249 0.7410000000000003 L 1.663484619140625 0.7410000000000003 M 1.631984619140625 0.6735000000000002 L 1.174484619140625 0.6735000000000002 L 1.390484619140625 0.16800000000000026 L 1.396484619140625 0.16800000000000026 L 1.631984619140625 0.6735000000000002 M 2.1749765625 2.220446049250313e-16 L 2.1749765625 1.0500000000000003 L 2.3114765624999998 1.0500000000000003 L 2.3114765624999998 0.5865000000000002 L 2.3774765624999996 0.5865000000000002 Q 2.4194765625 0.5865000000000002 2.4472265624999996 0.5940000000000003 Q 2.4749765624999998 0.6015000000000003 2.4974765624999997 0.6195000000000003 Q 2.5199765624999997 0.6375000000000002 2.5394765625 0.6660000000000003 Q 2.5589765625 0.6945000000000003 2.5859765625 0.7365000000000003 L 2.7044765625 0.9120000000000003 Q 2.7269765625 0.9465000000000002 2.7487265625 0.9750000000000003 Q 2.7704765625 1.0035000000000003 2.7959765625 1.0237500000000002 Q 2.8214765625 1.0440000000000003 2.8537265625 1.0560000000000003 Q 2.8859765625 1.0680000000000003 2.9309765624999997 1.0680000000000003 Q 2.9639765624999996 1.0680000000000003 2.9849765625 1.0650000000000002 Q 3.0059765625 1.0620000000000003 3.0269765625 1.0500000000000003 L 3.0269765625 0.9945000000000003 Q 3.0194765624999995 0.9960000000000002 3.0119765625 0.9967500000000002 Q 3.0044765625 0.9975000000000003 2.9969765624999996 0.9975000000000003 Q 2.9654765624999997 0.9975000000000003 2.9414765624999997 0.9885000000000003 Q 2.9174765624999996 0.9795000000000003 2.8964765624999997 0.9622500000000003 Q 2.8754765625 0.9450000000000003 2.8559765624999995 0.9202500000000002 Q 2.8364765624999997 0.8955000000000003 2.8154765625 0.8640000000000003 Q 2.7524765625 0.7725000000000002 2.7179765624999996 0.7177500000000003 Q 2.6834765624999997 0.6630000000000003 2.6632265625 0.6330000000000002 Q 2.6429765625 0.6030000000000002 2.6302265625 0.5895000000000002 Q 2.6174765625 0.5760000000000003 2.5994765624999996 0.5670000000000003 L 2.5844765625 0.5595000000000003 L 2.5844765625 0.5535000000000003 Q 2.6564765625 0.5490000000000003 2.7082265624999997 0.5220000000000002 Q 2.7599765625 0.4950000000000002 2.7929765625 0.45450000000000024 Q 2.8259765624999997 0.41400000000000026 2.8409765625 0.36675000000000024 Q 2.8559765624999995 0.31950000000000023 2.8559765624999995 0.2745000000000003 Q 2.8559765624999995 0.2340000000000002 2.8402265625 0.18600000000000028 Q 2.8244765624999997 0.13800000000000023 2.7862265624999996 0.09675000000000022 Q 2.7479765625 0.055500000000000216 2.6819765625 0.027750000000000163 Q 2.6159765624999998 2.220446049250313e-16 2.5154765625 2.220446049250313e-16 L 2.1749765625 2.220446049250313e-16 M 2.3114765624999998 0.06600000000000028 L 2.4629765624999997 0.06600000000000028 Q 2.5199765624999997 0.06600000000000028 2.5657265624999996 0.08250000000000024 Q 2.6114765625 0.0990000000000002 2.6444765624999995 0.1282500000000002 Q 2.6774765625 0.1575000000000002 2.6947265624999996 0.1980000000000003 Q 2.7119765625 0.23850000000000027 2.7119765625 0.2865000000000002 Q 2.7119765625 0.3270000000000003 2.6962265624999997 0.3682500000000003 Q 2.6804765625 0.4095000000000003 2.6489765624999997 0.44325000000000025 Q 2.6174765625 0.4770000000000002 2.5717265625 0.4980000000000002 Q 2.5259765625 0.5190000000000002 2.4659765625 0.5190000000000002 L 2.3114765624999998 0.5190000000000002 L 2.3114765624999998 0.06600000000000028 M 3.8325029296874997 0.7410000000000003 L 3.9765029296874994 1.0500000000000003 L 4.1220029296875 1.0500000000000003 L 3.6330029296874997 2.220446049250313e-16 L 3.5580029296874995 2.220446049250313e-16 L 3.1140029296874996 1.0500000000000003 L 3.1830029296874995 1.0500000000000003 L 3.3150029296874997 0.7410000000000003 L 3.8325029296874997 0.7410000000000003 M 3.8010029296875 0.6735000000000002 L 3.3435029296875 0.6735000000000002 L 3.5595029296874996 0.16800000000000026 L 3.5655029296875 0.16800000000000026 L 3.8010029296875 0.6735000000000002" fill="#ffffff" fill-rule="nonzero"></path></g><g></g><g clip-path="url(#SvgjsClipPath1000)"><path d=" M 0.2791357277743849 -3.8587234174981058 L 3.8878591452724907 -3.8587234174981058 L 3.8878591452724907 -0.25 L 0.2791357277743849 -0.25 Z M 0.33471006840385564 -3.8031490768686353 L 0.33471006840385564 -0.30557434062947086 L 3.8322848046430202 -0.30557434062947086 L 3.8322848046430202 -3.8031490768686353 Z" fill="#4e888f" transform="matrix(1,0,0,1,0,0)" fill-rule="nonzero"></path><path d=" M 1.977813393582422 -2.9565425631235795 L 1.2277144546596013 -2.9565425631235795 L 1.2277144546596013 -2.698776604730858 L 1.694270839350428 -2.698776604730858 L 1.694270839350428 -2.19613298586505 L 1.3282431784327628 -2.19613298586505 L 1.3282431784327628 -1.9383670274723281 L 1.694270839350428 -1.9383670274723281 L 1.694270839350428 -1.1521808543745267 L 1.977813393582422 -1.1521808543745267 L 1.977813393582422 -2.9565425631235795" fill="#4e888f" transform="matrix(1,0,0,1,0,0)" fill-rule="nonzero"></path><path d=" M 2.1891814794644535 -2.9565425631235795 L 2.9392804183872743 -2.9565425631235795 L 2.9392804183872743 -2.698776604730858 L 2.4727240336964478 -2.698776604730858 L 2.4727240336964478 -2.19613298586505 L 2.838751694614113 -2.19613298586505 L 2.838751694614113 -1.9383670274723281 L 2.4727240336964478 -1.9383670274723281 L 2.4727240336964478 -1.1521808543745267 L 2.1891814794644535 -1.1521808543745267 L 2.1891814794644535 -2.9565425631235795" fill="#4e888f" transform="matrix(1,0,0,1,0,0)" fill-rule="nonzero"></path></g></g><defs><clipPath id="SvgjsClipPath1000"><path d=" M 0.2791357277743849 -3.8587234174981058 h 3.6087234174981058 v 3.6087234174981058 h -3.6087234174981058 Z"></path></clipPath></defs></svg>